<?xml version="1.0" encoding="utf-8"?>
<!-- Generator: Adobe Illustrator 27.0.0, SVG Export Plug-In . SVG Version: 6.00 Build 0)  -->
<svg version="1.1" id="svg17" xmlns="http://www.w3.org/2000/svg" xmlns:xlink="http://www.w3.org/1999/xlink" x="0px" y="0px"
	 viewBox="0 0 499.4 96.9" style="enable-background:new 0 0 499.4 96.9;" xml:space="preserve">
<style type="text/css">
	.st0{fill:#3B3C98;}
	.st1{enable-background:new    ;}
</style>
<g id="SvgjsG2382">
	<g id="g11">
		<g id="g9">
			<path id="path3" class="st0" d="M39.2,57.1c-3.2,0-6,1.8-7.5,4.4c-0.8,1.3-1.2,2.8-1.2,4.4c0,4.8,3.9,8.7,8.7,8.7
				s8.7-3.9,8.7-8.7c0-1.6-0.5-3.1-1.2-4.4C45.2,58.9,42.5,57.1,39.2,57.1z"/>
			<path id="path5" class="st0" d="M100.3,57.1c-3.2,0-6,1.8-7.5,4.4c-0.8,1.3-1.2,2.8-1.2,4.4c0,4.8,3.9,8.7,8.7,8.7
				s8.7-3.9,8.7-8.7c0-1.6-0.5-3.1-1.2-4.4C106.3,58.9,103.5,57.1,100.3,57.1z"/>
			<path id="path7" class="st0" d="M126.4,48.4V44l-26.2-7.5L69.8,17.9h-48v4.4h26.2v4.4H0V31h52.3v4.4H8.7v4.4h21.8V44h-8.7v4.4
				H4.4v4.4h21.8v4.4h-4.4v4.4H8.7v4.4h17.4c0-1.5,0.3-3,0.8-4.4c1.8-5.1,6.6-8.7,12.3-8.7s10.5,3.7,12.3,8.7
				c0.5,1.4,0.8,2.8,0.8,4.4h34.9c0-1.5,0.3-3,0.8-4.4c1.8-5.1,6.6-8.7,12.3-8.7s10.5,3.7,12.3,8.7c0.5,1.4,0.8,2.8,0.8,4.4h13.1
				v-4.4h4.4V48.4H126.4L126.4,48.4z"/>
		</g>
	</g>
</g>
<g class="st1">
	<path d="M208.5,60c-0.3,1.7-0.8,4.1-1.3,7.2c-0.5,3.1-0.8,5.4-1,7.1c-6.2,0.9-11.8,1.4-16.7,1.4c-4.7,0-9.1-0.6-13.2-1.8
		c-4.1-1.2-7.8-3.1-11.2-5.8c-3.4-2.7-5.8-5.9-7.3-9.5c-1.5-3.6-2.2-7.7-2.2-12.2c0-5.3,1-10,2.9-14.2c2-4.2,4.8-7.7,8.5-10.5
		s7.7-4.8,12.1-6c4.4-1.2,8.9-1.8,13.6-1.8c4.3,0,9.6,0.6,16,1.7l0.1,3.7c0.1,1.6,0.1,3.4,0.3,5.3l0.3,5c-3.4-0.8-6.2-1.4-8.3-1.7
		c-2.1-0.3-4.1-0.4-5.9-0.4c-3.9,0-7.5,0.8-10.6,2.4c-3.1,1.6-5.6,3.9-7.4,6.9c-1.8,3-2.7,6.3-2.7,10c0,3.3,0.8,6.2,2.3,8.5
		c1.5,2.4,3.6,4.2,6.1,5.5c2.6,1.3,5.8,1.9,9.5,1.9c2.1,0,4.3-0.2,6.7-0.5C201.7,61.6,204.8,61,208.5,60z"/>
	<path d="M220.4,42.7c0.6-2.9,0.9-4.9,1-6c0.1-1.1,0.4-2.8,0.7-5.1c8.4-1.8,15.6-2.8,21.6-2.8c3.4,0,6.6,0.4,9.4,1.2
		c2.9,0.8,5.1,2,6.7,3.7c1.6,1.7,2.4,4.2,2.4,7.4c0,1.6-0.2,5.3-0.7,11c-0.4,5.7-0.8,13.2-1,22.5c-2.9-0.1-5.7-0.1-8.5-0.1
		c-2.7,0-5.7,0-8.7,0.1c0.4-3.2,0.8-9.8,1.3-19.8c-1.1,0.5-2,0.9-2.6,1.1c-0.6,0.2-1.7,0.6-3.3,1c-1.6,0.5-2.8,0.9-3.7,1.2
		s-1.7,0.7-2.3,1.2s-1.1,1-1.4,1.5c-0.3,0.5-0.4,1.1-0.4,1.7c0,1,0.4,1.8,1.2,2.5c0.8,0.7,2,1,3.8,1c0.6,0,1.3-0.1,2-0.2
		c0.7-0.1,1.7-0.4,2.9-0.8c-0.8,2.2-1.8,5.5-3,9.8c-2.5,0.4-4.9,0.6-7.1,0.6c-3.6,0-6.6-0.5-9-1.5s-4.3-2.6-5.5-4.9
		c-1.3-2.2-1.9-4.5-1.9-6.7c0-1.4,0.2-2.7,0.7-4c0.5-1.3,1.2-2.6,2.2-3.8s2.2-2.3,3.6-3.2c1.4-0.9,3.2-1.7,5.6-2.5
		c2.4-0.8,5.4-1.5,9-2.2c1.5-0.3,2.9-0.6,4.2-0.9c1.3-0.3,2.2-0.6,2.7-0.9s1-0.5,1.3-0.9c0.3-0.3,0.6-0.7,0.7-1
		c0.1-0.4,0.2-0.7,0.2-1.2c0-1.1-0.5-2-1.4-2.6c-0.9-0.6-2.3-0.9-4.1-0.9C233.9,38.4,227.7,39.9,220.4,42.7z"/>
	<path d="M270.4,74.6l1.4-19.4l0.4-11.1c0-2,0-4.1,0-6.2c0-2.1,0-4.8-0.1-7.9c3.5,0.1,6.3,0.1,8.4,0.1c2.4,0,5.2,0,8.3-0.1l-0.2,4.9
		c1.1-1.3,2.1-2.2,2.8-2.9c0.7-0.6,1.6-1.2,2.5-1.7c0.9-0.5,1.9-0.9,2.9-1.1c1-0.2,2.1-0.4,3.2-0.4c1,0,2.2,0.1,3.5,0.4
		c0,3.2,0.1,5.8,0.2,7.9l0.3,6.7c-1.6-0.5-3.1-0.7-4.5-0.7c-1.7,0-3.3,0.3-4.5,0.8c-1.3,0.5-2.4,1.3-3.4,2.3c-1,1-1.8,2.3-2.3,3.9
		c-0.6,1.5-1,4-1.2,7.3s-0.3,7.2-0.3,11.5c0,1.5,0.1,3.4,0.2,5.6c-2.8-0.1-5.7-0.1-8.5-0.1C276.7,74.5,273.6,74.5,270.4,74.6z"/>
	<path d="M309,74.6l1.2-21.1l0.7-16.5L311,30c3.2,0.1,6,0.1,8.5,0.1c2.8,0,5.5,0,8.1-0.1l-0.3,5.8c0.9-1.2,1.7-2.1,2.3-2.7
		c0.6-0.6,1.4-1.2,2.3-1.8c0.9-0.6,1.8-1,2.8-1.4c1-0.3,2-0.6,3.2-0.8c1.2-0.2,2.4-0.3,3.8-0.3c1.5,0,2.9,0.1,4.1,0.4
		c1.3,0.2,2.3,0.6,3.2,0.9c0.9,0.4,1.7,0.8,2.4,1.3c0.7,0.5,1.3,1.1,1.8,1.7c0.5,0.6,1.1,1.5,1.8,2.7c1.3-1.9,2.6-3.3,4.1-4.2
		s3-1.7,4.9-2.1c1.8-0.5,3.7-0.7,5.6-0.7c2.5,0,4.9,0.4,7.2,1.1c2.2,0.7,4.1,2,5.5,3.8c1.4,1.8,2.2,4.1,2.2,7c0,1.3-0.1,3.4-0.3,6.1
		c-0.2,2.7-0.5,7.4-0.8,14c-0.3,6.6-0.5,11.2-0.6,13.9c-2.7-0.1-5.3-0.1-7.8-0.1c-3.1,0-6.3,0-9.6,0.1c0.3-3.7,0.6-8.3,0.9-13.9
		c0.3-5.6,0.5-9.4,0.5-11.6c0-1.9-0.2-3.3-0.7-4.2s-1-1.6-1.7-1.9c-0.7-0.3-1.4-0.5-2.3-0.5c-0.9,0-1.6,0.2-2.3,0.5
		c-0.7,0.4-1.3,0.9-1.8,1.6c-0.7,1-1.3,2.2-1.7,3.7c-0.4,1.1-0.6,2.9-0.8,5.2c-0.2,2.4-0.4,5.5-0.5,9.4l-0.3,11.7
		c-3.1-0.1-5.9-0.1-8.4-0.1c-2.6,0-5.6,0-9,0.1c0.3-2.6,0.6-6.9,0.9-13.1c0.4-6.1,0.5-10.2,0.5-12.3c0-1.7-0.2-3.1-0.5-3.9
		c-0.3-0.9-0.8-1.6-1.5-2.1c-0.6-0.5-1.5-0.8-2.5-0.8c-1.1,0-2.1,0.3-3,1c-0.8,0.7-1.6,1.6-2.2,2.9c-0.6,1.3-1,3-1.3,5.2
		c-0.2,2.2-0.5,5.6-0.7,10.1c-0.2,4.5-0.3,8.9-0.4,13c-3.5-0.1-6.4-0.1-8.6-0.1C315.6,74.5,312.6,74.5,309,74.6z"/>
	<path d="M396.4,42.7c0.6-2.9,0.9-4.9,1-6s0.4-2.8,0.7-5.1c8.4-1.8,15.6-2.8,21.6-2.8c3.4,0,6.6,0.4,9.4,1.2c2.9,0.8,5.1,2,6.7,3.7
		c1.6,1.7,2.4,4.2,2.4,7.4c0,1.6-0.2,5.3-0.7,11c-0.4,5.7-0.8,13.2-1,22.5c-2.9-0.1-5.7-0.1-8.5-0.1c-2.7,0-5.7,0-8.7,0.1
		c0.4-3.2,0.8-9.8,1.3-19.8c-1.1,0.5-2,0.9-2.6,1.1s-1.7,0.6-3.3,1s-2.8,0.9-3.7,1.2s-1.7,0.7-2.3,1.2c-0.7,0.5-1.1,1-1.4,1.5
		c-0.3,0.5-0.4,1.1-0.4,1.7c0,1,0.4,1.8,1.2,2.5c0.8,0.7,2,1,3.8,1c0.6,0,1.3-0.1,2-0.2c0.7-0.1,1.7-0.4,2.9-0.8
		c-0.8,2.2-1.8,5.5-3,9.8c-2.5,0.4-4.9,0.6-7.1,0.6c-3.6,0-6.6-0.5-9-1.5s-4.3-2.6-5.5-4.9s-1.9-4.5-1.9-6.7c0-1.4,0.2-2.7,0.7-4
		c0.5-1.3,1.2-2.6,2.2-3.8s2.2-2.3,3.6-3.2c1.4-0.9,3.2-1.7,5.6-2.5c2.4-0.8,5.4-1.5,9-2.2c1.5-0.3,2.9-0.6,4.2-0.9
		c1.3-0.3,2.2-0.6,2.7-0.9c0.5-0.2,1-0.5,1.3-0.9c0.3-0.3,0.6-0.7,0.7-1c0.1-0.4,0.2-0.7,0.2-1.2c0-1.1-0.5-2-1.4-2.6
		c-0.9-0.6-2.3-0.9-4.1-0.9C409.9,38.4,403.7,39.9,396.4,42.7z"/>
	<path d="M441.7,74.6l10-13.2l7.4-10.1L445.3,30c4.3,0.1,7.9,0.1,11,0.1c3.8,0,7,0,9.5-0.1l4.6,10c0.3,0.6,0.7,1.6,1.3,2.8
		c2.2-3.8,4.9-8.1,7.9-12.8c2.6,0.1,5.7,0.1,9.3,0.1c3.3,0,6.5,0,9.6-0.1l-7,9.2c-1.4,1.8-4.3,5.8-8.8,11.9
		c2.7,4.6,7.6,12.5,14.7,23.5c-3.3-0.1-6.5-0.1-9.7-0.1c-3.9,0-7.4,0-10.5,0.1c-1.9-4.1-3.3-7.1-4.3-9c-1-2-1.9-3.7-2.6-5.4
		l-1.4,2.4c-0.4,0.7-1.1,1.8-2,3.2l-5.5,8.8c-3.1-0.1-6.2-0.1-9.2-0.1C448.7,74.5,445.2,74.5,441.7,74.6z"/>
</g>
</svg>